<svg width="79" height="125" viewBox="0 0 79 125" fill="none" xmlns="http://www.w3.org/2000/svg">
<g id="Frame" clip-path="url(#clip0_1_232)">
<g id="Group">
<path id="Vector" d="M0.753906 62.3176C2.21926 70.2846 3.49966 78.28 4.96501 86.2469C9.56024 92.9193 14.312 99.4778 18.9072 106.15C25.5795 110.745 32.138 115.497 38.8104 120.092C46.7773 121.558 54.7727 122.838 62.7397 124.303C70.7066 122.838 78.702 121.558 86.669 120.092C93.3413 115.497 99.8998 110.745 106.572 106.15C111.167 99.4778 115.919 92.9193 120.514 86.2469C121.98 78.28 123.26 70.2846 124.725 62.3176C123.26 54.3507 121.98 46.3553 120.514 38.3883C115.919 31.716 111.167 25.1575 106.572 18.4851C99.8998 13.8899 93.3413 9.13819 86.669 4.54296C78.7163 3.06338 70.7209 1.78298 62.7539 0.317627C54.7869 1.78298 46.7915 3.06338 38.8246 4.52873C32.1523 9.12396 25.5937 13.8757 18.9214 18.4709C14.3262 25.1432 9.57447 31.7017 4.97924 38.3741C3.49966 46.341 2.21926 54.3507 0.753906 62.3176ZM10.8122 83.8284C9.50333 76.6724 8.33674 69.4737 7.04211 62.3176C8.33674 55.1474 9.50333 47.9629 10.8122 40.8068C14.9522 34.8174 19.2059 28.9133 23.3601 22.9239C29.3496 18.7839 35.2537 14.5159 41.2431 10.3759C48.3992 9.06705 55.5979 7.90046 62.7539 6.60583C69.9242 7.90046 77.1087 9.06705 84.2647 10.3759C90.2541 14.5159 96.1582 18.7697 102.148 22.9239C106.288 28.9133 110.556 34.8174 114.696 40.8068C116.004 47.9629 117.171 55.1616 118.466 62.3176C117.157 69.4737 115.99 76.6724 114.681 83.8284C110.541 89.8178 106.288 95.7219 102.133 101.711C96.144 105.851 90.2399 110.119 84.2505 114.259C77.0944 115.568 69.8957 116.735 62.7397 118.029C55.5694 116.735 48.3849 115.568 41.2289 114.259C35.2394 110.119 29.3354 105.866 23.3459 101.711C19.2202 95.7219 14.9522 89.8178 10.8122 83.8284Z" fill="white" fill-opacity="0.05"/>
<path id="Vector_2" d="M55.8254 62.3176C55.9535 63.2139 56.0815 64.1244 56.2238 65.0206C56.7644 65.7462 57.305 66.486 57.8599 67.2116C58.5854 67.7522 59.311 68.307 60.0508 68.8476C60.9471 68.9757 61.8576 69.1179 62.7539 69.246C63.6501 69.1179 64.5606 68.9899 65.4569 68.8476C66.1825 68.307 66.9223 67.7664 67.6478 67.2116C68.1885 66.486 68.7433 65.7604 69.2839 65.0206C69.412 64.1244 69.5542 63.2139 69.6823 62.3176C69.5542 61.4213 69.4262 60.5108 69.2839 59.6145C68.7433 58.8889 68.2027 58.1491 67.6478 57.4236C66.9223 56.883 66.1967 56.3281 65.4569 55.7875C64.5606 55.6595 63.6501 55.5172 62.7539 55.3892C61.8576 55.5172 60.9471 55.6452 60.0508 55.7875C59.3252 56.3281 58.5854 56.8687 57.8599 57.4236C57.3193 58.1491 56.7644 58.8747 56.2238 59.6145C56.0958 60.5108 55.9535 61.4071 55.8254 62.3176ZM61.5873 62.8013C61.5588 62.6448 61.5446 62.4741 61.5161 62.3176C61.5446 62.1611 61.5588 61.9904 61.5873 61.8339C61.6869 61.7058 61.7864 61.5778 61.886 61.4355C62.0141 61.3359 62.1421 61.2363 62.2844 61.151C62.4409 61.1225 62.6116 61.1083 62.7681 61.0798C62.9246 61.1083 63.0953 61.1225 63.2518 61.151C63.3798 61.2506 63.5079 61.3502 63.6501 61.4355C63.7497 61.5636 63.8493 61.6916 63.9347 61.8339C63.9631 61.9904 63.9774 62.1611 64.0058 62.3176C63.9774 62.4741 63.9631 62.6448 63.9347 62.8013C63.8351 62.9293 63.7355 63.0574 63.6501 63.1996C63.5221 63.2992 63.3941 63.3988 63.2518 63.4984C63.0953 63.5268 62.9246 63.5411 62.7681 63.5695C62.6116 63.5411 62.4409 63.5268 62.2844 63.4984C62.1563 63.3988 62.0283 63.2992 61.886 63.1996C61.7722 63.0574 61.6869 62.9293 61.5873 62.8013Z" fill="white" fill-opacity="0.05"/>
<path id="Vector_3" d="M15.9765 62.3176C17.0577 68.3355 18.0536 74.3676 19.1348 80.3855C22.6346 85.4075 26.1912 90.3727 29.6768 95.3947C34.6988 98.8802 39.6639 102.451 44.686 105.937C50.7039 107.018 56.736 108 62.7539 109.095C68.7718 108.014 74.8039 107.018 80.8218 105.937C85.8438 102.437 90.8089 98.8802 95.831 95.3947C99.3165 90.3727 102.887 85.4075 106.373 80.3855C107.454 74.3676 108.436 68.3355 109.531 62.3176C108.45 56.2997 107.454 50.2676 106.373 44.2497C102.873 39.2276 99.3165 34.2625 95.831 29.2405C90.8089 25.755 85.8438 22.1841 80.8218 18.6985C74.8039 17.6173 68.7718 16.6356 62.7539 15.5402C56.736 16.6214 50.7039 17.6173 44.686 18.6985C39.6639 22.1983 34.6988 25.755 29.6768 29.2405C26.1912 34.2625 22.6203 39.2276 19.1348 44.2497C18.0536 50.2676 17.0719 56.2997 15.9765 62.3176ZM48.7121 68.1221C48.4133 66.1873 48.1288 64.2524 47.8585 62.3034C48.1288 60.3685 48.4133 58.4195 48.7121 56.4846C49.8645 54.9055 51.0311 53.3263 52.2119 51.7614C53.7768 50.5806 55.3418 49.414 56.9352 48.2616C58.87 47.9628 60.8048 47.6783 62.7539 47.408C64.6887 47.6783 66.6378 47.9628 68.5726 48.2616C70.1518 49.414 71.7309 50.5806 73.2959 51.7614C74.4767 53.3263 75.6433 54.8913 76.7956 56.4846C77.0944 58.4195 77.3789 60.3543 77.6492 62.3034C77.3789 64.2382 77.0944 66.1873 76.7956 68.1221C75.6433 69.7013 74.4767 71.2804 73.2959 72.8454C71.7309 74.0262 70.166 75.1928 68.5726 76.3451C66.6378 76.6439 64.7029 76.9284 62.7539 77.1987C60.819 76.9284 58.87 76.6439 56.9352 76.3451C55.356 75.1928 53.7768 74.0262 52.2119 72.8454C51.0453 71.2804 49.8787 69.7013 48.7121 68.1221ZM34.2862 63.4984C34.2578 63.2992 34.272 63.3135 34.3005 63.5553C34.3431 63.8541 34.3431 63.8256 34.2862 63.47C34.2862 63.4842 34.2862 63.4842 34.2862 63.4984ZM43.4625 83.2735C43.306 83.1597 43.3202 83.1597 43.5194 83.3162C43.7612 83.5012 43.7328 83.4869 43.4482 83.2593L43.4625 83.2735ZM63.9347 90.771C63.7355 90.7995 63.7497 90.7852 63.9916 90.7568C64.2904 90.7141 64.2619 90.7141 63.9062 90.771C63.9205 90.771 63.9205 90.771 63.9347 90.771ZM83.7098 81.609C83.596 81.7655 83.596 81.7513 83.7525 81.5521C83.9374 81.3102 83.9232 81.3387 83.6956 81.6232L83.7098 81.609ZM91.2073 61.1368C91.2357 61.3359 91.2357 61.3217 91.1931 61.0799C91.1504 60.7811 91.1504 60.8096 91.2073 61.1652C91.2073 61.151 91.2073 61.1368 91.2073 61.1368ZM82.0453 41.3617C82.2018 41.4755 82.1876 41.4755 81.9884 41.319C81.7465 41.134 81.775 41.1483 82.0595 41.3759C82.0595 41.3617 82.0453 41.3617 82.0453 41.3617ZM61.5731 33.85C61.7722 33.8215 61.758 33.8357 61.5019 33.8642C61.2032 33.9069 61.2316 33.9069 61.5873 33.85H61.5731ZM41.7979 43.0262C41.9118 42.8697 41.9117 42.8839 41.7553 43.0831C41.5703 43.3249 41.5845 43.2965 41.8122 43.012C41.7979 43.012 41.7979 43.0262 41.7979 43.0262ZM34.2862 61.1652C34.3289 60.8096 34.3431 60.7669 34.3005 61.0799C34.272 61.3217 34.272 61.3359 34.2862 61.1368C34.2862 61.1368 34.2862 61.151 34.2862 61.1652ZM41.8122 81.6232C41.5845 81.3387 41.5703 81.3102 41.7553 81.5521C41.9117 81.7513 41.9118 81.7655 41.7979 81.609C41.7979 81.609 41.7979 81.6232 41.8122 81.6232ZM61.6015 90.771C61.2458 90.7283 61.2032 90.7141 61.5161 90.7568C61.758 90.7852 61.7722 90.7852 61.5873 90.771C61.5731 90.771 61.5873 90.771 61.6015 90.771ZM82.0595 83.2593C81.775 83.4869 81.7465 83.5012 81.9884 83.3162C82.1876 83.1597 82.2018 83.1597 82.0453 83.2735L82.0595 83.2593ZM91.2073 63.47C91.1646 63.8256 91.1504 63.8683 91.1931 63.5553C91.2215 63.3135 91.2215 63.2992 91.2073 63.4984C91.2073 63.4842 91.2073 63.4842 91.2073 63.47ZM83.6956 43.012C83.9232 43.2965 83.9374 43.3249 83.7525 43.0831C83.596 42.8839 83.596 42.8697 83.7098 43.0262L83.6956 43.012ZM63.9062 33.85C64.2619 33.8926 64.3046 33.9069 63.9916 33.8642C63.7497 33.8357 63.7355 33.8357 63.9347 33.85C63.9205 33.85 63.9205 33.85 63.9062 33.85ZM43.4482 41.3759C43.7328 41.1483 43.7612 41.134 43.5194 41.319C43.3202 41.4755 43.306 41.4755 43.4625 41.3617C43.4625 41.3617 43.4482 41.3617 43.4482 41.3759ZM34.4285 62.3176C34.3574 62.5025 34.3147 62.7017 34.2862 62.9151C34.2436 63.1285 34.2578 63.3419 34.3005 63.5553C34.3005 63.726 34.3431 63.8825 34.4143 64.039C34.585 64.4089 34.6988 64.6935 34.9976 64.978C35.6662 65.6324 36.5341 65.6893 37.4161 65.6182C39.6213 65.4048 41.6983 64.6081 43.7612 63.8683C44.0031 65.604 44.2592 67.3396 44.5152 69.0753C39.2087 69.8862 31.199 70.5549 30.4308 63.9963C30.3597 63.3988 30.3597 62.844 30.4308 62.3318C30.3597 61.8197 30.3597 61.2648 30.4308 60.6673C31.199 54.1088 39.2087 54.7774 44.5152 55.5884C44.2449 57.324 44.0031 59.0597 43.7612 60.7953C41.6841 60.0555 39.6213 59.2589 37.4161 59.0454C36.5341 58.9601 35.6662 59.0312 34.9976 59.6856C34.6988 59.9702 34.585 60.2547 34.4143 60.6246C34.3431 60.7811 34.3005 60.9376 34.3005 61.1083C34.2578 61.3217 34.2436 61.5351 34.2862 61.7485C34.3147 61.9335 34.3574 62.1326 34.4285 62.3176ZM42.7227 42.2864C42.5377 42.3717 42.367 42.4713 42.1963 42.6136C42.0113 42.7274 41.8691 42.8839 41.7553 43.0689C41.6414 43.1969 41.5419 43.3249 41.4992 43.4814C41.3711 43.8656 41.2431 44.1359 41.2431 44.5627C41.2573 45.4874 41.8264 46.1561 42.5093 46.7251C44.2165 48.1336 46.2509 49.0299 48.2284 49.983C47.1756 51.3773 46.1229 52.7857 45.0843 54.1941C40.7594 51.0216 34.6277 45.8288 38.7107 40.6361C39.0806 40.1666 39.479 39.7825 39.8916 39.4695C40.2045 39.0569 40.5887 38.6586 41.0581 38.2887C46.2367 34.1914 51.4294 40.3373 54.6162 44.6623C53.2078 45.7008 51.7993 46.7394 50.4051 47.8064C49.4661 45.8146 48.5698 43.7944 47.1472 42.0872C46.5781 41.4043 45.9095 40.8353 44.9847 40.821C44.5721 40.821 44.2876 40.9349 43.9035 41.0771C43.747 41.134 43.6047 41.2194 43.4909 41.3332C43.306 41.447 43.1637 41.5893 43.0357 41.7742C42.9076 41.9307 42.808 42.1014 42.7227 42.2864ZM62.7539 33.9922C62.5689 33.9211 62.3698 33.8784 62.1563 33.85C61.9429 33.8073 61.7295 33.8215 61.5161 33.8642C61.3454 33.8642 61.1889 33.9069 61.0324 33.978C60.6625 34.1487 60.378 34.2625 60.0935 34.5613C59.439 35.2299 59.3821 36.0978 59.4533 36.9798C59.6667 39.185 60.4634 41.2621 61.2032 43.3249C59.4675 43.5668 57.7318 43.8229 55.9962 44.079C55.1853 38.7724 54.5166 30.7628 61.0751 29.9945C61.6726 29.9234 62.2275 29.9234 62.7396 29.9945C63.2518 29.9234 63.8067 29.9234 64.4042 29.9945C70.9627 30.7628 70.294 38.7724 69.4831 44.079C67.7474 43.8087 66.0118 43.5668 64.2761 43.3249C65.0159 41.2478 65.8126 39.185 66.026 36.9798C66.1114 36.0978 66.0402 35.2299 65.3858 34.5613C65.1013 34.2625 64.8167 34.1487 64.4468 33.978C64.2904 33.9069 64.1339 33.8642 63.9631 33.8642C63.7497 33.8215 63.5363 33.8073 63.3229 33.85C63.138 33.8784 62.9388 33.9211 62.7539 33.9922ZM82.7851 42.2864C82.6997 42.1014 82.6001 41.9307 82.4579 41.76C82.344 41.5751 82.1876 41.4328 82.0026 41.319C81.8746 41.2052 81.7465 41.1056 81.59 41.0629C81.2059 40.9349 80.9356 40.8068 80.5088 40.8068C79.5841 40.821 78.9154 41.3901 78.3463 42.073C76.9379 43.7802 76.0416 45.8146 75.0884 47.7921C73.6942 46.7393 72.2858 45.6866 70.8773 44.648C74.0499 40.3231 79.2426 34.1914 84.4354 38.2745C84.9049 38.6444 85.289 39.0427 85.602 39.4553C86.0145 39.7683 86.4129 40.1524 86.7828 40.6219C90.8801 45.8004 84.7341 50.9931 80.4092 54.1799C79.3707 52.7715 78.3179 51.363 77.2651 49.9688C79.2568 49.0299 81.277 48.1336 82.9842 46.7109C83.6671 46.1418 84.2362 45.4874 84.2504 44.5484C84.2504 44.1359 84.1366 43.8513 83.9943 43.4672C83.9374 43.3107 83.8521 43.1684 83.7383 43.0546C83.6245 42.8697 83.468 42.7274 83.2972 42.5994C83.1265 42.4713 82.97 42.3717 82.7851 42.2864ZM91.0792 62.3176C91.1504 62.1326 91.1931 61.9335 91.2215 61.7201C91.2642 61.5067 91.25 61.2933 91.2073 61.0799C91.2073 60.9091 91.1646 60.7527 91.0935 60.5962C90.9228 60.2263 90.8089 59.9417 90.5102 59.6572C89.8415 59.0028 88.9737 58.9459 88.0916 59.017C85.8865 59.2304 83.8094 60.0271 81.7465 60.7669C81.5047 59.0312 81.2486 57.2956 80.9925 55.5599C86.2991 54.749 94.3087 54.0803 95.077 60.6388C95.1481 61.2364 95.1481 61.7912 95.077 62.3034C95.1481 62.8155 95.1481 63.3704 95.077 63.9679C94.3087 70.5264 86.2991 69.8577 80.9925 69.0468C81.2628 67.3112 81.5047 65.5755 81.7465 63.8399C83.8236 64.5796 85.8865 65.3763 88.0916 65.5897C88.9737 65.6751 89.8415 65.604 90.5102 64.9495C90.8089 64.665 90.9228 64.3805 91.0935 64.0106C91.1646 63.8541 91.2073 63.6976 91.2073 63.5269C91.25 63.3135 91.2642 63.1001 91.2215 62.8867C91.1931 62.7017 91.1504 62.5025 91.0792 62.3176ZM82.7851 82.3488C82.97 82.2634 83.1407 82.1638 83.3115 82.0216C83.4964 81.9078 83.6387 81.7513 83.7525 81.5663C83.8663 81.4383 83.9659 81.3102 84.0086 81.1537C84.1366 80.7696 84.2647 80.4993 84.2647 80.0725C84.2504 79.1478 83.6814 78.4791 82.9985 77.9101C81.2913 76.5016 79.2569 75.6053 77.2793 74.6521C78.3321 73.2579 79.3849 71.8495 80.4234 70.441C84.7484 73.6136 90.8801 78.8063 86.797 83.9991C86.4271 84.4686 86.0288 84.8527 85.6162 85.1657C85.3032 85.5783 84.9191 85.9766 84.4496 86.3465C79.2711 90.4438 74.0783 84.2979 70.8915 79.9729C72.3 78.9344 73.7084 77.8958 75.1026 76.8288C76.0416 78.8206 76.9379 80.8408 78.3606 82.548C78.9296 83.2309 79.5983 83.7999 80.523 83.8141C80.9356 83.8141 81.2201 83.7003 81.6043 83.5581C81.7607 83.5012 81.903 83.4158 82.0168 83.302C82.2018 83.1882 82.344 83.0317 82.4721 82.861C82.5859 82.6902 82.6997 82.5337 82.7851 82.3488ZM62.7539 90.643C62.9388 90.7141 63.138 90.7568 63.3514 90.7852C63.5648 90.8279 63.7782 90.8137 63.9916 90.771C64.1623 90.771 64.3188 90.7283 64.4753 90.6572C64.8452 90.4865 65.1297 90.3727 65.4143 90.0739C66.0687 89.4052 66.1256 88.5374 66.0545 87.6554C65.8411 85.4502 65.0444 83.3731 64.3046 81.3102C66.0402 81.0684 67.7759 80.8123 69.5116 80.5562C70.3225 85.8628 70.9911 93.8724 64.4326 94.6407C63.8351 94.7118 63.2803 94.7118 62.7681 94.6407C62.2559 94.7118 61.7011 94.7118 61.1036 94.6407C54.5451 93.8724 55.2137 85.8628 56.0246 80.5562C57.7603 80.8265 59.496 81.0684 61.2316 81.3102C60.4918 83.3873 59.6951 85.4502 59.4817 87.6554C59.3964 88.5374 59.4675 89.4052 60.1219 90.0739C60.4065 90.3727 60.691 90.4865 61.0609 90.6572C61.2174 90.7283 61.3739 90.771 61.5446 90.771C61.758 90.8137 61.9714 90.8279 62.1848 90.7852C62.3698 90.7568 62.5689 90.7141 62.7539 90.643ZM42.7227 82.3488C42.808 82.5337 42.9076 82.7045 43.0499 82.8752C43.1637 83.0601 43.3202 83.2024 43.5051 83.3162C43.6332 83.43 43.7612 83.5296 43.9177 83.5723C44.3018 83.7003 44.5721 83.8284 44.9989 83.8284C45.9237 83.8141 46.5923 83.2451 47.1614 82.5622C48.5698 80.855 49.4661 78.8206 50.4193 76.8431C51.8135 77.8958 53.222 78.9486 54.6304 79.9872C51.4579 84.3121 46.2651 90.4438 41.0724 86.3607C40.6029 85.9908 40.2188 85.5925 39.9058 85.1799C39.4932 84.8669 39.0949 84.4828 38.725 84.0133C34.6277 78.8348 40.7736 73.642 45.0985 70.4553C46.1371 71.8637 47.1899 73.2722 48.2426 74.6664C46.2509 75.6053 44.2307 76.5016 42.5235 77.9243C41.8406 78.4934 41.2715 79.162 41.2573 80.0867C41.2573 80.4993 41.3711 80.7839 41.5134 81.168C41.5703 81.3245 41.6557 81.4667 41.7695 81.5806C41.8833 81.7655 42.0398 81.9078 42.2105 82.0358C42.367 82.1496 42.5377 82.2634 42.7227 82.3488ZM25.1811 62.3176C25.0816 63.1712 25.11 64.0959 25.2665 65.106C26.2766 71.2235 31.5547 72.8596 37.1316 72.9307C33.2335 76.9284 30.6584 81.8082 34.272 86.8587C34.8695 87.6838 35.5097 88.3525 36.1784 88.8931C36.7048 89.5617 37.3877 90.2019 38.2128 90.7995C43.2633 94.413 48.143 91.838 52.1407 87.9399C52.2119 93.5168 53.8479 98.7949 59.9654 99.805C60.9755 99.9757 61.9003 99.9899 62.7539 99.8903C63.6075 99.9899 64.5322 99.9615 65.5423 99.805C71.6598 98.7949 73.2959 93.5168 73.367 87.9399C77.3647 91.838 82.2445 94.413 87.2949 90.7995C88.1201 90.2019 88.7887 89.5617 89.3294 88.8931C89.998 88.3667 90.6382 87.6838 91.2357 86.8587C94.8493 81.8082 92.2743 76.9284 88.3762 72.9307C93.953 72.8596 99.2311 71.2235 100.241 65.106C100.412 64.0959 100.426 63.1712 100.327 62.3176C100.426 61.464 100.398 60.5393 100.241 59.5292C99.2311 53.4117 93.953 51.7756 88.3762 51.7045C92.2743 47.7068 94.8493 42.827 91.2357 37.7765C90.6382 36.9514 89.998 36.2827 89.3294 35.7421C88.803 35.0735 88.1201 34.4332 87.2949 33.8357C82.2445 30.2221 77.3647 32.7972 73.367 36.6953C73.2959 31.1184 71.6598 25.8403 65.5423 24.8302C64.5322 24.6595 63.6075 24.6453 62.7539 24.7449C61.9003 24.6453 60.9755 24.6737 59.9654 24.8302C53.8479 25.8403 52.2119 31.1184 52.1407 36.6953C48.143 32.7972 43.2633 30.2221 38.2128 33.8357C37.3877 34.4332 36.719 35.0735 36.1784 35.7421C35.5097 36.2685 34.8695 36.9514 34.272 37.7765C30.6584 42.827 33.2335 47.7068 37.1316 51.7045C31.5547 51.7756 26.2766 53.4117 25.2665 59.5292C25.11 60.5393 25.0816 61.464 25.1811 62.3176ZM22.7911 78.8633C21.8094 73.3575 20.8989 67.8233 19.9173 62.3176C20.8989 56.7976 21.8094 51.2777 22.7911 45.7719C25.9921 41.1767 29.25 36.6242 32.451 32.0289C37.0462 28.8279 41.5988 25.57 46.194 22.369C51.6997 21.3874 57.2339 20.4769 62.7396 19.4952C68.2596 20.4769 73.7796 21.3874 79.2853 22.369C83.8805 25.57 88.4331 28.8279 93.0283 32.0289C96.2293 36.6242 99.4872 41.1767 102.688 45.7719C103.67 51.2777 104.58 56.8119 105.562 62.3176C104.58 67.8233 103.67 73.3575 102.688 78.8633C99.4872 83.4585 96.2293 88.011 93.0283 92.6063C88.4331 95.8073 83.8805 99.0652 79.2853 102.266C73.7796 103.248 68.2454 104.158 62.7396 105.14C57.2197 104.158 51.6997 103.248 46.194 102.266C41.5988 99.0652 37.0462 95.8073 32.451 92.6063C29.2642 88.011 25.9921 83.4585 22.7911 78.8633Z" fill="white" fill-opacity="0.05"/>
</g>
</g>
<defs>
<clipPath id="clip0_1_232">
<rect width="124" height="124" fill="white" transform="translate(0.753906 0.317627)"/>
</clipPath>
</defs>
</svg>
