<svg width="41" height="60" viewBox="0 0 41 60" fill="none" xmlns="http://www.w3.org/2000/svg">
<g id="Frame" clip-path="url(#clip0_1_237)">
<g id="Group">
<path id="Vector" d="M-40.6157 41.0951C-39.6585 46.3636 -38.8221 51.6509 -37.8649 56.9193C-34.8632 61.3317 -31.7593 65.6688 -28.7575 70.0811C-24.399 73.1199 -20.1148 76.2622 -15.7563 79.3009C-10.552 80.27 -5.32924 81.1167 -0.125019 82.0857C5.0792 81.1167 10.302 80.27 15.5062 79.3009C19.8648 76.2622 24.149 73.1199 28.5075 70.0811C31.5092 65.6688 34.6132 61.3317 37.6149 56.9193C38.5721 51.6509 39.4085 46.3636 40.3657 41.0951C39.4085 35.8266 38.5721 30.5393 37.6149 25.2709C34.6132 20.8585 31.5092 16.5215 28.5075 12.1091C24.149 9.07033 19.8648 5.92806 15.5062 2.88928C10.3113 1.91085 5.0885 1.06413 -0.115723 0.095108C-5.31994 1.06413 -10.5428 1.91085 -15.747 2.87987C-20.1055 5.91865 -24.3897 9.06092 -28.7482 12.0997C-31.75 16.512 -34.8539 20.8491 -37.8556 25.2615C-38.8221 30.5299 -39.6585 35.8266 -40.6157 41.0951ZM-34.0454 55.32C-34.9004 50.5878 -35.6624 45.8273 -36.5081 41.0951C-35.6624 36.3535 -34.9004 31.6024 -34.0454 26.8702C-31.3411 22.9095 -28.5624 19.0052 -25.8487 15.0444C-21.9363 12.3067 -18.0796 9.48428 -14.1671 6.74655C-9.49262 5.88102 -4.79023 5.10956 -0.115723 4.25344C4.56808 5.10956 9.26117 5.88102 13.9357 6.74655C17.8481 9.48428 21.7048 12.2973 25.6173 15.0444C28.3216 19.0052 31.1096 22.9095 33.8139 26.8702C34.6689 31.6024 35.431 36.3629 36.2767 41.0951C35.4217 45.8273 34.6596 50.5878 33.8046 55.32C31.1003 59.2807 28.3216 63.1851 25.608 67.1458C21.6955 69.8835 17.8388 72.7059 13.9264 75.4437C9.25187 76.3092 4.54949 77.0806 -0.125019 77.9368C-4.80882 77.0806 -9.50191 76.3092 -14.1764 75.4437C-18.0889 72.7059 -21.9456 69.8929 -25.858 67.1458C-28.5531 63.1851 -31.3411 59.2807 -34.0454 55.32Z" fill="white" fill-opacity="0.03"/>
<path id="Vector_2" d="M-4.64157 41.0951C-4.55793 41.6878 -4.47429 42.2899 -4.38136 42.8826C-4.02821 43.3624 -3.67507 43.8516 -3.31264 44.3314C-2.83868 44.6889 -2.36472 45.0558 -1.88147 45.4133C-1.296 45.498 -0.701228 45.5921 -0.115753 45.6768C0.469722 45.5921 1.06449 45.5074 1.64996 45.4133C2.12392 45.0558 2.60717 44.6983 3.08113 44.3314C3.43427 43.8516 3.7967 43.3718 4.14985 42.8826C4.23349 42.2899 4.32642 41.6878 4.41006 41.0951C4.32642 40.5024 4.24278 39.9003 4.14985 39.3076C3.7967 38.8277 3.44356 38.3385 3.08113 37.8587C2.60717 37.5012 2.13321 37.1343 1.64996 36.7768C1.06449 36.6921 0.469722 36.5981 -0.115753 36.5134C-0.701228 36.5981 -1.296 36.6827 -1.88147 36.7768C-2.35543 37.1343 -2.83868 37.4918 -3.31264 37.8587C-3.66578 38.3385 -4.02821 38.8183 -4.38136 39.3076C-4.465 39.9003 -4.55793 40.493 -4.64157 41.0951ZM-0.877803 41.4149C-0.89639 41.3115 -0.905683 41.1986 -0.924269 41.0951C-0.905683 40.9916 -0.89639 40.8787 -0.877803 40.7752C-0.812751 40.6905 -0.747695 40.6059 -0.682642 40.5118C-0.599003 40.4459 -0.515365 40.3801 -0.422432 40.3236C-0.320207 40.3048 -0.208687 40.2954 -0.106462 40.2766C-0.00423574 40.2954 0.107284 40.3048 0.209509 40.3236C0.293149 40.3895 0.376787 40.4553 0.469719 40.5118C0.534772 40.5964 0.599825 40.6811 0.655585 40.7752C0.674171 40.8787 0.683464 40.9916 0.702051 41.0951C0.683464 41.1986 0.674171 41.3115 0.655585 41.4149C0.590532 41.4996 0.525479 41.5843 0.469719 41.6784C0.38608 41.7442 0.302442 41.8101 0.209509 41.8759C0.107284 41.8948 -0.00423574 41.9042 -0.106462 41.923C-0.208687 41.9042 -0.320207 41.8948 -0.422432 41.8759C-0.506072 41.8101 -0.58971 41.7442 -0.682642 41.6784C-0.756988 41.5843 -0.812751 41.4996 -0.877803 41.4149Z" fill="white" fill-opacity="0.03"/>
<path id="Vector_3" d="M-30.672 41.0951C-29.9657 45.0746 -29.3152 49.0636 -28.6089 53.0432C-26.3228 56.3642 -23.9994 59.6476 -21.7226 62.9686C-18.4421 65.2736 -15.1987 67.635 -11.9182 69.9399C-7.98717 70.6549 -4.04683 71.3041 -0.115784 72.0285C3.81526 71.3135 7.7556 70.6549 11.6866 69.9399C14.9672 67.6256 18.2105 65.2736 21.491 62.9686C23.7679 59.6476 26.1005 56.3642 28.3773 53.0432C29.0836 49.0636 29.7248 45.0746 30.4404 41.0951C29.7341 37.1155 29.0836 33.1265 28.3773 29.1469C26.0912 25.8259 23.7679 22.5425 21.491 19.2215C18.2105 16.9165 14.9672 14.5551 11.6866 12.2502C7.7556 11.5352 3.81526 10.886 -0.115784 10.1616C-4.04683 10.8766 -7.98717 11.5352 -11.9182 12.2502C-15.1987 14.5645 -18.4421 16.9165 -21.7226 19.2215C-23.9994 22.5425 -26.332 25.8259 -28.6089 29.1469C-29.3152 33.1265 -29.9564 37.1155 -30.672 41.0951ZM-9.28823 44.9335C-9.48338 43.654 -9.66925 42.3745 -9.84582 41.0856C-9.66925 39.8062 -9.48338 38.5173 -9.28823 37.2378C-8.53547 36.1935 -7.77343 35.1492 -7.00209 34.1143C-5.97983 33.3335 -4.95757 32.562 -3.91672 31.8C-2.65284 31.6024 -1.38896 31.4142 -0.115784 31.2355C1.1481 31.4142 2.42127 31.6024 3.68515 31.8C4.71671 32.562 5.74826 33.3335 6.77052 34.1143C7.54186 35.1492 8.3039 36.1841 9.05666 37.2378C9.25182 38.5173 9.43768 39.7968 9.61425 41.0856C9.43768 42.3651 9.25182 43.654 9.05666 44.9335C8.3039 45.9778 7.54186 47.0221 6.77052 48.057C5.74826 48.8378 4.726 49.6093 3.68515 50.3713C2.42127 50.5689 1.15739 50.7571 -0.115784 50.9358C-1.37967 50.7571 -2.65284 50.5689 -3.91672 50.3713C-4.94827 49.6093 -5.97983 48.8378 -7.00209 48.057C-7.76413 47.0221 -8.52618 45.9778 -9.28823 44.9335ZM-18.7116 41.8759C-18.7302 41.7442 -18.7209 41.7536 -18.7023 41.9135C-18.6744 42.1111 -18.6744 42.0923 -18.7116 41.8571C-18.7116 41.8665 -18.7116 41.8665 -18.7116 41.8759ZM-12.7174 54.953C-12.8197 54.8778 -12.8104 54.8778 -12.6803 54.9812C-12.5223 55.1035 -12.5409 55.0941 -12.7267 54.9436L-12.7174 54.953ZM0.655556 59.911C0.52545 59.9298 0.534744 59.9204 0.69273 59.9016C0.887888 59.8734 0.869299 59.8734 0.636969 59.911C0.646261 59.911 0.646261 59.911 0.655556 59.911ZM13.5732 53.8523C13.4988 53.9558 13.4988 53.9464 13.6011 53.8146C13.7219 53.6547 13.7126 53.6735 13.5639 53.8617L13.5732 53.8523ZM18.4707 40.3142C18.4893 40.4459 18.4893 40.4365 18.4614 40.2766C18.4335 40.079 18.4335 40.0978 18.4707 40.333C18.4707 40.3236 18.4707 40.3142 18.4707 40.3142ZM12.4859 27.2371C12.5881 27.3124 12.5788 27.3124 12.4487 27.2089C12.2907 27.0866 12.3093 27.096 12.4952 27.2465C12.4952 27.2371 12.4859 27.2371 12.4859 27.2371ZM-0.887125 22.2697C-0.757019 22.2509 -0.766312 22.2603 -0.93359 22.2791C-1.12875 22.3073 -1.11016 22.3073 -0.877832 22.2697H-0.887125ZM-13.8047 28.3378C-13.7304 28.2343 -13.7304 28.2437 -13.8326 28.3755C-13.9534 28.5354 -13.9441 28.5166 -13.7955 28.3284C-13.8047 28.3284 -13.8047 28.3378 -13.8047 28.3378ZM-18.7116 40.333C-18.6837 40.0978 -18.6744 40.0696 -18.7023 40.2766C-18.7209 40.4365 -18.7209 40.4459 -18.7116 40.3142C-18.7116 40.3142 -18.7116 40.3236 -18.7116 40.333ZM-13.7955 53.8617C-13.9441 53.6735 -13.9534 53.6547 -13.8326 53.8146C-13.7304 53.9464 -13.7304 53.9558 -13.8047 53.8523C-13.8047 53.8523 -13.8047 53.8617 -13.7955 53.8617ZM-0.868538 59.911C-1.10087 59.8828 -1.12875 59.8734 -0.924297 59.9016C-0.766314 59.9204 -0.757021 59.9204 -0.877832 59.911C-0.887125 59.911 -0.877831 59.911 -0.868538 59.911ZM12.4952 54.9436C12.3093 55.0941 12.2907 55.1035 12.4487 54.9812C12.5788 54.8778 12.5881 54.8778 12.4859 54.953L12.4952 54.9436ZM18.4707 41.8571C18.4428 42.0923 18.4335 42.1205 18.4614 41.9135C18.48 41.7536 18.48 41.7442 18.4707 41.8759C18.4707 41.8665 18.4707 41.8665 18.4707 41.8571ZM13.5639 28.3284C13.7126 28.5166 13.7219 28.5354 13.6011 28.3755C13.4988 28.2437 13.4988 28.2343 13.5732 28.3378L13.5639 28.3284ZM0.636969 22.2697C0.869299 22.2979 0.897181 22.3073 0.69273 22.2791C0.534744 22.2603 0.52545 22.2603 0.655556 22.2697C0.646261 22.2697 0.646261 22.2697 0.636969 22.2697ZM-12.7267 27.2465C-12.5409 27.096 -12.5223 27.0866 -12.6803 27.2089C-12.8104 27.3124 -12.8197 27.3124 -12.7174 27.2371C-12.7174 27.2371 -12.7267 27.2371 -12.7267 27.2465ZM-18.6186 41.0951C-18.6651 41.2174 -18.693 41.3491 -18.7116 41.4902C-18.7395 41.6313 -18.7302 41.7724 -18.7023 41.9135C-18.7023 42.0264 -18.6744 42.1299 -18.6279 42.2334C-18.5164 42.478 -18.4421 42.6662 -18.2469 42.8543C-17.8101 43.2871 -17.2432 43.3247 -16.6671 43.2777C-15.2266 43.1366 -13.8698 42.6097 -12.5223 42.1205C-12.3643 43.2683 -12.197 44.4161 -12.0297 45.5638C-15.4961 46.1001 -20.7282 46.5423 -21.2301 42.2052C-21.2765 41.8101 -21.2765 41.4431 -21.2301 41.1045C-21.2765 40.7658 -21.2765 40.3989 -21.2301 40.0037C-20.7282 35.6666 -15.4961 36.1088 -12.0297 36.6451C-12.2063 37.7929 -12.3643 38.9406 -12.5223 40.0884C-13.8791 39.5992 -15.2266 39.0723 -16.6671 38.9312C-17.2432 38.8748 -17.8101 38.9218 -18.2469 39.3546C-18.4421 39.5427 -18.5164 39.7309 -18.6279 39.9755C-18.6744 40.079 -18.7023 40.1825 -18.7023 40.2954C-18.7302 40.4365 -18.7395 40.5776 -18.7116 40.7187C-18.693 40.841 -18.6651 40.9728 -18.6186 41.0951ZM-13.2007 27.8486C-13.3215 27.9051 -13.433 27.9709 -13.5445 28.065C-13.6653 28.1403 -13.7583 28.2437 -13.8326 28.3661C-13.907 28.4507 -13.972 28.5354 -13.9999 28.6389C-14.0835 28.8929 -14.1672 29.0717 -14.1672 29.3539C-14.1579 29.9654 -13.7862 30.4076 -13.3401 30.7839C-12.2249 31.7153 -10.896 32.308 -9.6042 32.9383C-10.2919 33.8603 -10.9796 34.7917 -11.658 35.7231C-14.4832 33.6251 -18.4885 30.1912 -15.8214 26.7573C-15.5798 26.4468 -15.3195 26.1928 -15.05 25.9858C-14.8456 25.713 -14.5947 25.4496 -14.288 25.205C-10.9052 22.4955 -7.51321 26.5597 -5.43152 29.4197C-6.35156 30.1065 -7.27159 30.7933 -8.18233 31.4989C-8.79568 30.1818 -9.38116 28.8459 -10.3105 27.7169C-10.6822 27.2653 -11.119 26.889 -11.7231 26.8796C-11.9926 26.8796 -12.1784 26.9549 -12.4293 27.0489C-12.5316 27.0866 -12.6245 27.143 -12.6988 27.2183C-12.8197 27.2935 -12.9126 27.3876 -12.9962 27.5099C-13.0799 27.6134 -13.1449 27.7263 -13.2007 27.8486ZM-0.115784 22.3638C-0.236595 22.3167 -0.366703 22.2885 -0.506102 22.2697C-0.6455 22.2415 -0.784899 22.2509 -0.924297 22.2791C-1.03582 22.2791 -1.13804 22.3073 -1.24027 22.3544C-1.48189 22.4672 -1.66776 22.5425 -1.85362 22.7401C-2.28111 23.1823 -2.31829 23.7561 -2.27182 24.3394C-2.13242 25.7977 -1.612 27.1712 -1.12875 28.5354C-2.26252 28.6953 -3.3963 28.8647 -4.53008 29.034C-5.05979 25.5248 -5.49658 20.2281 -1.21239 19.7201C-0.822071 19.6731 -0.459635 19.6731 -0.125078 19.7201C0.209478 19.6731 0.571918 19.6731 0.962234 19.7201C5.24643 20.2281 4.80964 25.5248 4.27993 29.034C3.14615 28.8553 2.01237 28.6953 0.878595 28.5354C1.36184 27.1618 1.88227 25.7977 2.02166 24.3394C2.07742 23.7561 2.03096 23.1823 1.60347 22.7401C1.4176 22.5425 1.23174 22.4672 0.990112 22.3544C0.887888 22.3073 0.785662 22.2791 0.674143 22.2791C0.534744 22.2509 0.395344 22.2415 0.255945 22.2697C0.135134 22.2885 0.00502968 22.3167 -0.115784 22.3638ZM12.9691 27.8486C12.9134 27.7263 12.8483 27.6134 12.7554 27.5005C12.681 27.3782 12.5788 27.2841 12.458 27.2089C12.3743 27.1336 12.2907 27.0678 12.1885 27.0395C11.9376 26.9549 11.761 26.8702 11.4822 26.8702C10.8781 26.8796 10.4414 27.2559 10.0696 27.7075C9.14959 28.8365 8.56411 30.1818 7.94146 31.4895C7.03073 30.7933 6.11069 30.0971 5.19066 29.4103C7.26306 26.5503 10.6551 22.4955 14.0471 25.1956C14.3538 25.4402 14.6047 25.7036 14.8092 25.9764C15.0787 26.1834 15.3389 26.4374 15.5805 26.7479C18.257 30.1724 14.2423 33.6063 11.4171 35.7137C10.7387 34.7823 10.051 33.8509 9.36333 32.9289C10.6644 32.308 11.984 31.7153 13.0992 30.7745C13.5453 30.3982 13.917 29.9654 13.9263 29.3445C13.9263 29.0717 13.852 28.8835 13.759 28.6295C13.7219 28.526 13.6661 28.4319 13.5918 28.3566C13.5174 28.2343 13.4152 28.1403 13.3037 28.0556C13.1922 27.9709 13.0899 27.9051 12.9691 27.8486ZM18.3871 41.0951C18.4335 40.9728 18.4614 40.841 18.48 40.6999C18.5079 40.5588 18.4986 40.4177 18.4707 40.2766C18.4707 40.1637 18.4428 40.0602 18.3964 39.9567C18.2849 39.7121 18.2105 39.5239 18.0154 39.3358C17.5786 38.903 17.0117 38.8654 16.4355 38.9124C14.995 39.0535 13.6382 39.5804 12.2907 40.0696C12.1327 38.9218 11.9654 37.774 11.7982 36.6263C15.2645 36.09 20.4967 35.6478 20.9985 39.9849C21.045 40.38 21.045 40.747 20.9985 41.0856C21.045 41.4243 21.045 41.7912 20.9985 42.1864C20.4967 46.5235 15.2645 46.0813 11.7982 45.545C11.9747 44.3973 12.1327 43.2495 12.2907 42.1017C13.6475 42.5909 14.995 43.1178 16.4355 43.2589C17.0117 43.3153 17.5786 43.2683 18.0154 42.8355C18.2105 42.6474 18.2849 42.4592 18.3964 42.2146C18.4428 42.1111 18.4707 42.0076 18.4707 41.8947C18.4986 41.7536 18.5079 41.6125 18.48 41.4714C18.4614 41.3491 18.4335 41.2174 18.3871 41.0951ZM12.9691 54.3415C13.0899 54.285 13.2014 54.2192 13.313 54.1251C13.4338 54.0498 13.5267 53.9464 13.6011 53.8241C13.6754 53.7394 13.7405 53.6547 13.7683 53.5512C13.852 53.2972 13.9356 53.1185 13.9356 52.8362C13.9263 52.2247 13.5546 51.7825 13.1085 51.4062C11.9933 50.4748 10.6644 49.8821 9.37263 49.2518C10.0603 48.3298 10.748 47.3984 11.4264 46.467C14.2516 48.565 18.257 51.9989 15.5898 55.4328C15.3482 55.7433 15.088 55.9973 14.8185 56.2043C14.614 56.4771 14.3631 56.7405 14.0564 56.9851C10.6737 59.6946 7.28164 55.6304 5.19995 52.7704C6.11999 52.0836 7.04002 51.3968 7.95076 50.6912C8.56411 52.0083 9.14959 53.3442 10.0789 54.4732C10.4506 54.9248 10.8874 55.3011 11.4915 55.3105C11.761 55.3105 11.9469 55.2353 12.1978 55.1412C12.3 55.1035 12.3929 55.0471 12.4673 54.9718C12.5881 54.8966 12.681 54.7931 12.7647 54.6802C12.839 54.5673 12.9134 54.4638 12.9691 54.3415ZM-0.115784 59.8264C0.00502968 59.8734 0.135134 59.9016 0.274532 59.9204C0.413931 59.9487 0.553329 59.9392 0.69273 59.911C0.804249 59.911 0.906475 59.8828 1.0087 59.8358C1.25032 59.7229 1.43619 59.6476 1.62206 59.45C2.04955 59.0079 2.08672 58.434 2.04025 57.8507C1.90085 56.3924 1.38043 55.0189 0.897179 53.6547C2.03096 53.4948 3.16473 53.3254 4.29851 53.1561C4.82823 56.6653 5.26501 61.962 0.980818 62.47C0.590502 62.517 0.228065 62.517 -0.106491 62.47C-0.441048 62.517 -0.803488 62.517 -1.1938 62.47C-5.47799 61.962 -5.04121 56.6653 -4.51149 53.1561C-3.37772 53.3348 -2.24394 53.4948 -1.11016 53.6547C-1.59341 55.0283 -2.11383 56.3924 -2.25323 57.8507C-2.30899 58.434 -2.26253 59.0079 -1.83504 59.45C-1.64917 59.6476 -1.46331 59.7229 -1.22168 59.8358C-1.11946 59.8828 -1.01723 59.911 -0.905712 59.911C-0.766312 59.9392 -0.626913 59.9487 -0.487514 59.9204C-0.366701 59.9016 -0.236595 59.8734 -0.115784 59.8264ZM-13.2007 54.3415C-13.1449 54.4638 -13.0799 54.5767 -12.9869 54.6896C-12.9126 54.8119 -12.8104 54.906 -12.6896 54.9812C-12.6059 55.0565 -12.5223 55.1224 -12.42 55.1506C-12.1691 55.2353 -11.9926 55.3199 -11.7138 55.3199C-11.1097 55.3105 -10.6729 54.9342 -10.3012 54.4826C-9.38116 53.3537 -8.79568 52.0083 -8.17303 50.7006C-7.26229 51.3968 -6.34226 52.093 -5.42223 52.7798C-7.49463 55.6398 -10.8867 59.6946 -14.2787 56.9945C-14.5854 56.7499 -14.8363 56.4865 -15.0407 56.2137C-15.3103 56.0067 -15.5705 55.7527 -15.8121 55.4422C-18.4885 52.0177 -14.4739 48.5838 -11.6487 46.4764C-10.9703 47.4078 -10.2826 48.3392 -9.5949 49.2612C-10.896 49.8821 -12.2156 50.4748 -13.3308 51.4156C-13.7769 51.7919 -14.1486 52.2341 -14.1579 52.8456C-14.1579 53.1185 -14.0835 53.3066 -13.9906 53.5606C-13.9534 53.6641 -13.8977 53.7582 -13.8233 53.8335C-13.749 53.9558 -13.6468 54.0498 -13.5352 54.1345C-13.433 54.2098 -13.3215 54.285 -13.2007 54.3415ZM-24.6593 41.0951C-24.7243 41.6595 -24.7057 42.2711 -24.6035 42.939C-23.9437 46.9845 -20.4959 48.0664 -16.8529 48.1134C-19.3993 50.7571 -21.0814 53.984 -18.7209 57.3238C-18.3306 57.8695 -17.9124 58.3117 -17.4756 58.6692C-17.1317 59.1113 -16.6857 59.5347 -16.1466 59.9298C-12.8475 62.3195 -9.65996 60.6166 -7.04855 58.0388C-7.00208 61.7268 -5.93336 65.2171 -1.93726 65.8851C-1.27744 65.998 -0.673378 66.0074 -0.115784 65.9415C0.441813 66.0074 1.04587 65.9886 1.70569 65.8851C5.70179 65.2171 6.77052 61.7268 6.81698 58.0388C9.42839 60.6166 12.616 62.3195 15.9151 59.9298C16.4541 59.5347 16.8909 59.1113 17.244 58.6692C17.6808 58.3211 18.099 57.8695 18.4893 57.3238C20.8498 53.984 19.1677 50.7571 16.6214 48.1134C20.2643 48.0664 23.7121 46.9845 24.3719 42.939C24.4835 42.2711 24.4927 41.6595 24.4277 41.0951C24.4927 40.5306 24.4742 39.9191 24.3719 39.2511C23.7121 35.2057 20.2643 34.1237 16.6214 34.0767C19.1677 31.4331 20.8498 28.2061 18.4893 24.8663C18.099 24.3206 17.6808 23.8784 17.244 23.5209C16.9002 23.0788 16.4541 22.6554 15.9151 22.2603C12.616 19.8706 9.42839 21.5735 6.81698 24.1513C6.77052 20.4633 5.70179 16.973 1.70569 16.305C1.04587 16.1921 0.441813 16.1827 -0.115784 16.2486C-0.673378 16.1827 -1.27744 16.2015 -1.93726 16.305C-5.93336 16.973 -7.00208 20.4633 -7.04855 24.1513C-9.65996 21.5735 -12.8475 19.8706 -16.1466 22.2603C-16.6857 22.6554 -17.1224 23.0788 -17.4756 23.5209C-17.9124 23.869 -18.3306 24.3206 -18.7209 24.8663C-21.0814 28.2061 -19.3993 31.4331 -16.8529 34.0767C-20.4959 34.1237 -23.9437 35.2057 -24.6035 39.2511C-24.7057 39.9191 -24.7243 40.5306 -24.6593 41.0951ZM-26.2205 52.0365C-26.8618 48.3956 -27.4565 44.7359 -28.0978 41.0951C-27.4565 37.4448 -26.8618 33.7945 -26.2205 30.1536C-24.1295 27.1148 -22.0014 24.1042 -19.9104 21.0655C-16.9087 18.9487 -13.9348 16.7942 -10.9331 14.6774C-7.33664 14.0283 -3.72157 13.4262 -0.125078 12.777C3.48071 13.4262 7.08649 14.0283 10.683 14.6774C13.6847 16.7942 16.6585 18.9487 19.6603 21.0655C21.7512 24.1042 23.8794 27.1148 25.9704 30.1536C26.6116 33.7945 27.2064 37.4542 27.8476 41.0951C27.2064 44.7359 26.6116 48.3956 25.9704 52.0365C23.8794 55.0753 21.7512 58.0859 19.6603 61.1247C16.6585 63.2415 13.6847 65.3959 10.683 67.5127C7.08649 68.1618 3.47141 68.7639 -0.125078 69.4131C-3.73086 68.7639 -7.33664 68.1618 -10.9331 67.5127C-13.9348 65.3959 -16.9087 63.2415 -19.9104 61.1247C-21.9921 58.0859 -24.1295 55.0753 -26.2205 52.0365Z" fill="white" fill-opacity="0.03"/>
</g>
</g>
<defs>
<clipPath id="clip0_1_237">
<rect width="81" height="82" fill="white" transform="translate(-40.6157 0.095108)"/>
</clipPath>
</defs>
</svg>
